*********************************************************************

Silver Linings Playbook 2012 1080p BluRay DTS x264 - alrmothe

*********************************************************************

TiTLE : Silver Linings Playbook 
YEAR: 2012
GENRE :  Comedy | Drama | Romance  
imdb URL :http://www.imdb.com/title/tt1045658/
Format: Matroska
Overall bit rate: 8133 Kbps
Format version: Version 4 / Version 2
File size:  6.94 GiB
Duration:  2h 2mn
Sub:Arabic,English,,italian,portuguese
Romanian,spanish
 
*********************************************************************

Video
Format : AVC 
Format/Info : Advanced Video Codec 
Format profile : High@L4.1 
Format settings, CABAC : Yes 
Format settings, ReFrames : 7 frames  
Codec ID : V_MPEG4/ISO/AVC  
Bit rate : 6624 Kbps 
Width : 1920 pixels 
Height : 800 pixels 
Display aspect ratio : 16:9 
Frame rate : 23.976 fps 
Color space : YUV 
Chroma subsampling : 4:2:0 
Bit depth : 8 bits 
Scan type : Progressive 
Bits/(Pixel*Frame) : 0.180 
Stream size: 5.51 GiB (79%)
Title: Silver Linings Playbook 2012 1080p BluRay DTS x264 - alrmothe


Audio 
Format: DTS
Format/Info: Digital Theater Systems
Mode: 16
Format settings, Endianness: Big
Codec ID: A_DTS
Bit rate mode: Constant
Bit rate : 1509 Kbps
Channel(s) : 6 channels
Channel positions:Front: L C R, Side: L R, LFE
Sampling rate: 48.0 KHz
Bit depth: 24 bits
Compression mode: Lossy
Stream size: 1.29 GiB (19%)
Language : English




*********************************************************************


Screenshots 
http://img542.imageshack.us/img542/1809/vlcsnap2013040415h16m51.png 
http://img801.imageshack.us/img801/5598/vlcsnap2013040415h17m21.png 
http://img251.imageshack.us/img251/1918/vlcsnap2013040415h18m47.png 
http://img27.imageshack.us/img27/7581/vlcsnap2013040315h14m27.png 
http://img820.imageshack.us/img820/4835/vlcsnap2013040315h16m37.png 
http://img201.imageshack.us/img201/31/vlcsnap2013040315h17m12.png 
http://img534.imageshack.us/img534/6932/vlcsnap2013040315h17m43.png 
http://img541.imageshack.us/img541/356/vlcsnap2013040315h19m11.png 
http://img829.imageshack.us/img829/9146/vlcsnap2013040315h21m29.png 
http://img40.imageshack.us/img40/5636/vlcsnap2013040315h22m10.png 
http://img20.imageshack.us/img20/5927/vlcsnap2013040315h23m50.png
